<svg version="1.1" viewBox="0 0 499.79 339.3" xmlns="http://www.w3.org/2000/svg"><g transform="translate(-264.61 -305.14)"><path fill="#bec3cd" d="m379.72 305.14c-5.0517 0.0892-9.2698 3.3894-11.537 7.2266l-10.285 22.883h0.22461l-61.119 134.32c-2.9497 5.4631-3.75 7.3679-5.5273 13.875l-26.713 137.07c-1.3993 11.245 6.8455 23.702 18.57 23.918l461.99-0.14648c10.443-0.055 19.192-10.691 19.078-23.988l-30.289-135.58c-0.43053-7.3623-3.3172-11.032-5.0352-14.533-22.584-49.932-45.387-99.764-67.887-149.73-3.1676-8.1692-4.6882-11.236-12.707-15.215zm12.246 30.109 241.4 0.10351c22.107 45.529 41.259 89.655 61.264 134.64 0 0-56.437-0.0895-58.618 0-3.5905 1.2104-9.1755 7.335-10.357 12.215-7.4497 30.759-40.934 75.998-112.58 76.775-70.276 0.76261-109.78-44.803-115.11-76.191-1.095-6.4592-7.1082-11.2-14.117-12.799h-51.664c19.07-43.391 39.715-86.98 59.777-134.75zm131.96 1.0605v133.76h26.225v-133.76zm-90.818 7.5684-44.354 126.2h28.689l9.1523-29.92h45.76l9.1523 29.92h28.689l-44.529-126.2zm156.82 9.6797-7.5684 20.242-14.432 8.7988v11.09h12.496v46.289c0 8.2136 1.2897 14.666 3.8711 19.359 2.6987 4.5761 6.2775 7.8042 10.736 9.6816 4.5761 1.8774 9.7388 2.8144 15.488 2.8144 4.9281 0 9.446-0.46951 13.553-1.4082 4.2241-0.82136 7.7445-1.8169 10.561-2.9902v-19.537c-2.6987 0.82136-5.397 1.5246-8.0957 2.1113-2.6988 0.58669-5.5158 0.88086-8.4492 0.88086-3.4028 0-6.1594-0.88057-8.2715-2.6406-2.1121-1.8774-3.168-4.634-3.168-8.2715v-46.289h26.928v-19.713h-26.928v-20.418zm-140.45 9.8574c0.58669 2.3467 1.3504 5.1034 2.2891 8.2715 0.93869 3.1681 1.8777 6.2774 2.8164 9.3281 0.93869 3.0508 1.7004 5.5736 2.2871 7.5684l9.1523 29.217h-32.736l8.9766-29.217c0.46935-1.2907 1.1142-3.461 1.9356-6.5117 0.9387-3.1681 1.8777-6.4527 2.8164-9.8555 1.056-3.5201 1.8762-6.454 2.4629-8.8008z"/></g></svg>