<svg xmlns:rdf="http://www.w3.org/1999/02/22-rdf-syntax-ns#" xmlns="http://www.w3.org/2000/svg" height="100%" width="100%" version="1.1" xmlns:cc="http://creativecommons.org/ns#" viewBox="0 0 64 64" xmlns:dc="http://purl.org/dc/elements/1.1/"><path fill="#1e90ff" d="m13.574 0h36.852c7.52 0 13.574 6.0541 13.574 13.574v36.851c0 7.521-6.054 13.575-13.574 13.575h-36.852c-7.5199 0-13.574-6.054-13.574-13.574v-36.852c0-7.5199 6.0541-13.574 13.574-13.574z"/><path stroke-linejoin="round" d="m12.7 18.86h38.593c1.6505 0 2.9793 1.3288 2.9793 2.9793v28.593c0 1.6505-1.3288 2.9793-2.9793 2.9793h-38.593c-1.6505 0-2.9793-1.3288-2.9793-2.9793v-28.593c0-1.6505 1.3288-2.9793 2.9793-2.9793z" stroke="#62b2ff" stroke-width="5.4481" fill="#62b2ff"/><path stroke-linejoin="round" d="m12.7 10.71h38.593c1.6505 0 2.9793 1.3288 2.9793 2.9793v28.593c0 1.6505-1.3288 2.9793-2.9793 2.9793h-38.593c-1.6505 0-2.9793-1.3288-2.9793-2.9793v-28.593c0-1.6505 1.3288-2.9793 2.9793-2.9793z" stroke="#fff" stroke-width="5.4481" fill="#fff"/><g transform="translate(-519.44,-577.5)" stroke="#1e90ff" stroke-width=".52929" fill="#1e90ff"><path d="m44.406 31.812v13.844h2.7188v-13.844zm-8.156 0.813l-4.5938 13.031h2.9688l0.9375-3.0938h4.75l0.9375 3.0938h2.9688l-4.594-13.031zm13.656 1-0.78125 2.0938-1.5 0.90625v1.125h1.3125v4.8125c0 1.0973 0.25774 1.9172 0.75 2.4688 0.4982 0.54564 1.2897 0.8125 2.375 0.8125 0.9846 0 1.7926-0.13503 2.4688-0.4375v-2.0312c-0.6643 0.20759-1.213 0.3125-1.6875 0.3125-0.35585 0-0.65557-0.09739-0.875-0.28125-0.21352-0.18385-0.3125-0.45824-0.3125-0.84375v-4.8125h2.7812v-2.0312h-2.7812v-2.0938zm-11.969 1c0.04744 0.21352 0.14324 0.5073 0.25 0.875 0.1127 0.3677 0.59691 1.9447 1.4688 4.75h-3.4062c0.92521-2.995 1.4918-4.8658 1.6875-5.625z" transform="translate(519.44,577.5)"/></g><path fill="#1e90ff" d="m60.497 5.2349h-56.998l14.249 10.901 14.25 10.901 14.25-10.901z"/></svg>