<?xml version="1.0" encoding="UTF-8" standalone="no"?><svg xmlns:rdf="http://www.w3.org/1999/02/22-rdf-syntax-ns#" xmlns="http://www.w3.org/2000/svg" version="1.1" viewBox="0 0 64 64"><path fill="#0197fd" d="m13.574 0h36.852c7.52 0 13.574 6.0541 13.574 13.574v36.851c0 7.521-6.054 13.575-13.574 13.575h-36.852c-7.5199 0-13.574-6.054-13.574-13.574v-36.852c0-7.5199 6.0541-13.574 13.574-13.574z"/><path opacity=".30290" stroke-linejoin="round" d="m12.7 18.86h38.593c1.6505 0 2.9793 1.3288 2.9793 2.9793v28.593c0 1.6505-1.3288 2.9793-2.9793 2.9793h-38.593c-1.6505 0-2.9793-1.3288-2.9793-2.9793v-28.593c0-1.6505 1.3288-2.9793 2.9793-2.9793z" stroke="#fff" stroke-linecap="round" stroke-width="5.4481" fill="#fff"/><path stroke-linejoin="round" d="m12.7 10.71h38.593c1.6505 0 2.9793 1.3288 2.9793 2.9793v28.593c0 1.6505-1.3288 2.9793-2.9793 2.9793h-38.593c-1.6505 0-2.9793-1.3288-2.9793-2.9793v-28.593c0-1.6505 1.3288-2.9793 2.9793-2.9793z" stroke="#fff" stroke-linecap="round" stroke-width="5.4481" fill="#fff"/><g transform="translate(-519.44,-577.5)" stroke="#0197fd" stroke-width=".52929" fill="#0197fd"><path d="m560.69 623.17-0.943-3.0959h-4.7417l-0.943 3.0959h-2.9713l4.5905-13.06h3.3717l4.6082 13.06h-2.9713m-1.6013-5.4089c-0.87184-2.8053-1.3641-4.3918-1.4768-4.7595-0.10676-0.3677-0.18386-0.65831-0.2313-0.87183-0.19572 0.75916-0.75619 2.6363-1.6814 5.6313h3.3895"/><path d="m566.57 623.17h-2.7134v-13.843h2.7134v13.843"/><path d="m572.37 621.19c0.47446 0 1.0438-0.10378 1.7081-0.31137v2.0194c-0.67612 0.30247-1.5064 0.45371-2.491 0.45371-1.0853 0-1.8771-0.27282-2.3753-0.81846-0.49226-0.55156-0.73839-1.3759-0.73839-2.4732v-4.7951h-1.2988v-1.1476l1.4946-0.90741 0.78287-2.0995h1.7348v2.1173h2.7845v2.0372h-2.7845v4.7951c0 0.38551 0.10675 0.67019 0.32027 0.85404 0.21943 0.18386 0.50708 0.27578 0.86293 0.27578"/></g><path d="m60.497 5.2349h-56.998l14.249 10.901 14.25 10.901 14.25-10.901z" fill="#0197fd"/></svg>
